STARTFONT 2.1
FONT -Monotype-Century Schoolbook-Bold-I-Normal--10-100-75-75-P-56-iso8859-9
SIZE 10 75 75
FONTBOUNDINGBOX 13 13 -1 -3

STARTPROPERTIES 21
FOUNDRY "Monotype"
FAMILY_NAME "Century Schoolbook"
WEIGHT_NAME "Bold"
SLANT "I"
SETWIDTH_NAME "Normal"
ADD_STYLE_NAME ""
PIXEL_SIZE 10
POINT_SIZE 100
RESOLUTION_X 75
RESOLUTION_Y 75
SPACING "P"
AVERAGE_WIDTH 56
CHARSET_REGISTRY "iso8859"
CHARSET_ENCODING "9"
COPYRIGHT "Copyright (c) 1996 Monotype Typography Ltd."
CAP_HEIGHT 9
X_HEIGHT 6
WEIGHT 10
QUAD_WIDTH 7
FONT_DESCENT 3
FONT_ASCENT 10
ENDPROPERTIES

CHARS 191

STARTCHAR space
ENCODING 32
SWIDTH 287 0
DWIDTH 3 0
BBX 0 0 0 0
BITMAP
ENDCHAR

STARTCHAR exclam
ENCODING 33
SWIDTH 333 0
DWIDTH 3 0
BBX 3 7 0 0
BITMAP
60
60
60
40
00
C0
C0
ENDCHAR

STARTCHAR quotedbl
ENCODING 34
SWIDTH 400 0
DWIDTH 4 0
BBX 3 3 1 4
BITMAP
A0
A0
A0
ENDCHAR

STARTCHAR numbersign
ENCODING 35
SWIDTH 606 0
DWIDTH 6 0
BBX 8 7 0 0
BITMAP
12
12
7F
24
FE
48
48
ENDCHAR

STARTCHAR dollar
ENCODING 36
SWIDTH 574 0
DWIDTH 6 0
BBX 5 9 1 -1
BITMAP
10
38
68
60
30
30
B0
E0
40
ENDCHAR

STARTCHAR percent
ENCODING 37
SWIDTH 889 0
DWIDTH 9 0
BBX 7 7 1 0
BITMAP
64
A8
A8
D6
2A
2A
4C
ENDCHAR

STARTCHAR ampersand
ENCODING 38
SWIDTH 889 0
DWIDTH 9 0
BBX 9 7 0 0
BITMAP
1C00
3600
3400
7B80
D900
CE80
7700
ENDCHAR

STARTCHAR quoteright
ENCODING 39
SWIDTH 259 0
DWIDTH 3 0
BBX 2 4 1 3
BITMAP
C0
C0
40
80
ENDCHAR

STARTCHAR parenleft
ENCODING 40
SWIDTH 407 0
DWIDTH 4 0
BBX 4 9 1 -2
BITMAP
30
60
60
C0
C0
C0
C0
C0
60
ENDCHAR

STARTCHAR parenright
ENCODING 41
SWIDTH 407 0
DWIDTH 4 0
BBX 4 9 0 -2
BITMAP
60
30
30
30
30
30
60
60
C0
ENDCHAR

STARTCHAR asterisk
ENCODING 42
SWIDTH 500 0
DWIDTH 5 0
BBX 4 4 1 3
BITMAP
20
F0
60
A0
ENDCHAR

STARTCHAR plus
ENCODING 43
SWIDTH 606 0
DWIDTH 6 0
BBX 5 5 1 1
BITMAP
20
20
F8
20
20
ENDCHAR

STARTCHAR comma
ENCODING 44
SWIDTH 287 0
DWIDTH 3 0
BBX 2 4 0 -2
BITMAP
C0
C0
40
80
ENDCHAR

STARTCHAR minus
ENCODING 45
SWIDTH 606 0
DWIDTH 6 0
BBX 5 1 1 3
BITMAP
F8
ENDCHAR

STARTCHAR period
ENCODING 46
SWIDTH 287 0
DWIDTH 3 0
BBX 2 2 0 0
BITMAP
C0
C0
ENDCHAR

STARTCHAR slash
ENCODING 47
SWIDTH 278 0
DWIDTH 3 0
BBX 5 7 -1 0
BITMAP
08
18
30
20
60
C0
80
ENDCHAR

STARTCHAR zero
ENCODING 48
SWIDTH 574 0
DWIDTH 6 0
BBX 5 7 1 0
BITMAP
30
58
D8
D8
D8
D0
60
ENDCHAR

STARTCHAR one
ENCODING 49
SWIDTH 574 0
DWIDTH 6 0
BBX 4 7 1 0
BITMAP
10
70
30
30
60
60
F0
ENDCHAR

STARTCHAR two
ENCODING 50
SWIDTH 574 0
DWIDTH 6 0
BBX 5 7 1 0
BITMAP
30
58
58
18
30
40
F0
ENDCHAR

STARTCHAR three
ENCODING 51
SWIDTH 574 0
DWIDTH 6 0
BBX 6 7 0 0
BITMAP
18
2C
0C
38
18
98
70
ENDCHAR

STARTCHAR four
ENCODING 52
SWIDTH 574 0
DWIDTH 6 0
BBX 5 7 1 0
BITMAP
18
38
58
B0
F8
30
78
ENDCHAR

STARTCHAR five
ENCODING 53
SWIDTH 574 0
DWIDTH 6 0
BBX 5 7 1 0
BITMAP
38
20
60
30
B0
B0
60
ENDCHAR

STARTCHAR six
ENCODING 54
SWIDTH 574 0
DWIDTH 6 0
BBX 5 7 1 0
BITMAP
30
48
E0
D0
D0
D0
60
ENDCHAR

STARTCHAR seven
ENCODING 55
SWIDTH 574 0
DWIDTH 6 0
BBX 4 7 2 0
BITMAP
F0
90
30
60
60
C0
C0
ENDCHAR

STARTCHAR eight
ENCODING 56
SWIDTH 574 0
DWIDTH 6 0
BBX 5 7 1 0
BITMAP
30
68
68
70
B0
B0
60
ENDCHAR

STARTCHAR nine
ENCODING 57
SWIDTH 574 0
DWIDTH 6 0
BBX 5 7 0 0
BITMAP
30
58
58
58
38
90
60
ENDCHAR

STARTCHAR colon
ENCODING 58
SWIDTH 287 0
DWIDTH 3 0
BBX 3 5 0 0
BITMAP
60
60
00
C0
C0
ENDCHAR

STARTCHAR semicolon
ENCODING 59
SWIDTH 287 0
DWIDTH 3 0
BBX 3 7 0 -2
BITMAP
60
60
00
C0
C0
40
80
ENDCHAR

STARTCHAR less
ENCODING 60
SWIDTH 606 0
DWIDTH 6 0
BBX 6 5 1 1
BITMAP
1C
30
C0
30
18
ENDCHAR

STARTCHAR equal
ENCODING 61
SWIDTH 606 0
DWIDTH 6 0
BBX 5 3 1 2
BITMAP
F8
00
F8
ENDCHAR

STARTCHAR greater
ENCODING 62
SWIDTH 606 0
DWIDTH 6 0
BBX 6 5 1 1
BITMAP
60
30
0C
30
E0
ENDCHAR

STARTCHAR question
ENCODING 63
SWIDTH 481 0
DWIDTH 5 0
BBX 5 7 0 0
BITMAP
30
58
30
60
30
C0
C0
ENDCHAR

STARTCHAR at
ENCODING 64
SWIDTH 747 0
DWIDTH 7 0
BBX 8 8 0 -1
BITMAP
1C
62
5D
A5
AA
BD
42
3C
ENDCHAR

STARTCHAR A
ENCODING 65
SWIDTH 741 0
DWIDTH 7 0
BBX 8 7 0 0
BITMAP
06
0E
16
16
3E
46
EF
ENDCHAR

STARTCHAR B
ENCODING 66
SWIDTH 759 0
DWIDTH 8 0
BBX 8 7 0 0
BITMAP
7E
33
33
3C
66
66
FC
ENDCHAR

STARTCHAR C
ENCODING 67
SWIDTH 759 0
DWIDTH 7 0
BBX 7 7 0 0
BITMAP
1A
76
62
C0
C0
C4
78
ENDCHAR

STARTCHAR D
ENCODING 68
SWIDTH 833 0
DWIDTH 8 0
BBX 8 7 0 0
BITMAP
7E
33
33
33
66
6E
F8
ENDCHAR

STARTCHAR E
ENCODING 69
SWIDTH 741 0
DWIDTH 7 0
BBX 7 7 0 0
BITMAP
7E
32
30
38
60
64
FC
ENDCHAR

STARTCHAR F
ENCODING 70
SWIDTH 704 0
DWIDTH 7 0
BBX 7 7 0 0
BITMAP
7E
32
30
38
60
60
F0
ENDCHAR

STARTCHAR G
ENCODING 71
SWIDTH 815 0
DWIDTH 7 0
BBX 7 7 0 0
BITMAP
1A
76
60
DE
CC
DC
6C
ENDCHAR

STARTCHAR H
ENCODING 72
SWIDTH 870 0
DWIDTH 9 0
BBX 9 7 0 0
BITMAP
7B80
3300
3300
3F00
6600
6600
F700
ENDCHAR

STARTCHAR I
ENCODING 73
SWIDTH 444 0
DWIDTH 5 0
BBX 5 7 0 0
BITMAP
78
30
30
30
60
60
F0
ENDCHAR

STARTCHAR J
ENCODING 74
SWIDTH 667 0
DWIDTH 7 0
BBX 7 7 0 0
BITMAP
1E
0C
0C
0C
D8
98
70
ENDCHAR

STARTCHAR K
ENCODING 75
SWIDTH 778 0
DWIDTH 8 0
BBX 9 7 0 0
BITMAP
7B80
3200
3400
3C00
6C00
6600
F700
ENDCHAR

STARTCHAR L
ENCODING 76
SWIDTH 704 0
DWIDTH 7 0
BBX 7 7 0 0
BITMAP
78
30
30
30
60
62
FE
ENDCHAR

STARTCHAR M
ENCODING 77
SWIDTH 944 0
DWIDTH 11 0
BBX 11 7 0 0
BITMAP
70E0
31C0
31C0
5AC0
5B80
4D80
EDC0
ENDCHAR

STARTCHAR N
ENCODING 78
SWIDTH 852 0
DWIDTH 8 0
BBX 8 7 0 0
BITMAP
77
32
3A
5A
5C
4C
EC
ENDCHAR

STARTCHAR O
ENCODING 79
SWIDTH 833 0
DWIDTH 8 0
BBX 8 7 0 0
BITMAP
1E
73
63
C3
C6
CE
78
ENDCHAR

STARTCHAR P
ENCODING 80
SWIDTH 741 0
DWIDTH 7 0
BBX 7 7 0 0
BITMAP
7C
36
36
3C
60
60
F0
ENDCHAR

STARTCHAR Q
ENCODING 81
SWIDTH 833 0
DWIDTH 8 0
BBX 8 9 0 -2
BITMAP
1E
73
63
C3
D6
EE
78
1A
0C
ENDCHAR

STARTCHAR R
ENCODING 82
SWIDTH 796 0
DWIDTH 8 0
BBX 8 7 0 0
BITMAP
7C
36
36
3C
6C
6D
F6
ENDCHAR

STARTCHAR S
ENCODING 83
SWIDTH 685 0
DWIDTH 7 0
BBX 7 7 0 0
BITMAP
3A
66
72
38
9C
CC
B8
ENDCHAR

STARTCHAR T
ENCODING 84
SWIDTH 722 0
DWIDTH 7 0
BBX 8 7 0 0
BITMAP
7E
DB
99
18
30
30
78
ENDCHAR

STARTCHAR U
ENCODING 85
SWIDTH 833 0
DWIDTH 8 0
BBX 8 7 1 0
BITMAP
F7
62
62
C4
C4
C8
70
ENDCHAR

STARTCHAR V
ENCODING 86
SWIDTH 741 0
DWIDTH 7 0
BBX 8 7 0 0
BITMAP
F7
62
64
64
68
70
60
ENDCHAR

STARTCHAR W
ENCODING 87
SWIDTH 944 0
DWIDTH 10 0
BBX 12 7 0 0
BITMAP
F770
6620
6640
6E80
7700
6600
4400
ENDCHAR

STARTCHAR X
ENCODING 88
SWIDTH 741 0
DWIDTH 7 0
BBX 8 7 0 0
BITMAP
F7
62
34
18
38
4C
EE
ENDCHAR

STARTCHAR Y
ENCODING 89
SWIDTH 704 0
DWIDTH 7 0
BBX 8 7 0 0
BITMAP
F7
62
64
38
30
30
78
ENDCHAR

STARTCHAR Z
ENCODING 90
SWIDTH 704 0
DWIDTH 7 0
BBX 8 7 0 0
BITMAP
3F
26
0C
18
30
64
FC
ENDCHAR

STARTCHAR bracketleft
ENCODING 91
SWIDTH 407 0
DWIDTH 4 0
BBX 5 9 0 -2
BITMAP
38
30
30
60
60
60
C0
C0
E0
ENDCHAR

STARTCHAR backslash
ENCODING 92
SWIDTH 606 0
DWIDTH 6 0
BBX 5 7 1 0
BITMAP
80
C0
60
20
30
18
08
ENDCHAR

STARTCHAR bracketright
ENCODING 93
SWIDTH 407 0
DWIDTH 4 0
BBX 5 9 -1 -2
BITMAP
38
18
18
30
30
30
60
60
E0
ENDCHAR

STARTCHAR asciicircum
ENCODING 94
SWIDTH 606 0
DWIDTH 6 0
BBX 5 4 1 3
BITMAP
20
20
50
D8
ENDCHAR

STARTCHAR underscore
ENCODING 95
SWIDTH 500 0
DWIDTH 5 0
BBX 5 1 0 -2
BITMAP
F8
ENDCHAR

STARTCHAR quoteleft
ENCODING 96
SWIDTH 259 0
DWIDTH 3 0
BBX 2 4 1 3
BITMAP
40
80
C0
C0
ENDCHAR

STARTCHAR a
ENCODING 97
SWIDTH 667 0
DWIDTH 7 0
BBX 6 5 1 0
BITMAP
34
5C
D8
D8
6C
ENDCHAR

STARTCHAR b
ENCODING 98
SWIDTH 611 0
DWIDTH 6 0
BBX 5 7 1 0
BITMAP
E0
60
70
58
D8
D0
E0
ENDCHAR

STARTCHAR c
ENCODING 99
SWIDTH 537 0
DWIDTH 5 0
BBX 5 5 1 0
BITMAP
38
68
C0
D0
E0
ENDCHAR

STARTCHAR d
ENCODING 100
SWIDTH 667 0
DWIDTH 7 0
BBX 6 7 1 0
BITMAP
1C
0C
2C
58
D8
DC
E8
ENDCHAR

STARTCHAR e
ENCODING 101
SWIDTH 519 0
DWIDTH 5 0
BBX 5 5 0 0
BITMAP
38
58
F0
C0
70
ENDCHAR

STARTCHAR f
ENCODING 102
SWIDTH 389 0
DWIDTH 4 0
BBX 5 9 0 -2
BITMAP
18
30
78
30
60
60
60
C0
C0
ENDCHAR

STARTCHAR g
ENCODING 103
SWIDTH 611 0
DWIDTH 5 0
BBX 6 7 0 -2
BITMAP
34
68
68
30
78
D8
F0
ENDCHAR

STARTCHAR h
ENCODING 104
SWIDTH 685 0
DWIDTH 7 0
BBX 6 7 1 0
BITMAP
E0
60
78
6C
CC
D8
DC
ENDCHAR

STARTCHAR i
ENCODING 105
SWIDTH 389 0
DWIDTH 4 0
BBX 3 7 1 0
BITMAP
60
00
E0
60
60
C0
E0
ENDCHAR

STARTCHAR j
ENCODING 106
SWIDTH 370 0
DWIDTH 4 0
BBX 5 9 -1 -2
BITMAP
18
00
38
18
18
30
30
30
E0
ENDCHAR

STARTCHAR k
ENCODING 107
SWIDTH 648 0
DWIDTH 6 0
BBX 5 7 1 0
BITMAP
E0
60
78
58
F0
D8
D8
ENDCHAR

STARTCHAR l
ENCODING 108
SWIDTH 389 0
DWIDTH 4 0
BBX 3 7 1 0
BITMAP
E0
60
60
60
C0
C0
E0
ENDCHAR

STARTCHAR m
ENCODING 109
SWIDTH 944 0
DWIDTH 10 0
BBX 9 5 1 0
BITMAP
ED80
7F80
6D80
DB00
DB80
ENDCHAR

STARTCHAR n
ENCODING 110
SWIDTH 685 0
DWIDTH 7 0
BBX 6 5 1 0
BITMAP
EC
7C
6C
D8
DC
ENDCHAR

STARTCHAR o
ENCODING 111
SWIDTH 574 0
DWIDTH 6 0
BBX 5 5 1 0
BITMAP
38
58
D8
D0
E0
ENDCHAR

STARTCHAR p
ENCODING 112
SWIDTH 648 0
DWIDTH 6 0
BBX 6 7 0 -2
BITMAP
6C
34
34
38
70
60
F0
ENDCHAR

STARTCHAR q
ENCODING 113
SWIDTH 630 0
DWIDTH 6 0
BBX 5 7 1 -2
BITMAP
28
58
D8
F8
D0
30
78
ENDCHAR

STARTCHAR r
ENCODING 114
SWIDTH 519 0
DWIDTH 5 0
BBX 5 5 1 0
BITMAP
E8
78
60
C0
C0
ENDCHAR

STARTCHAR s
ENCODING 115
SWIDTH 481 0
DWIDTH 4 0
BBX 5 5 0 0
BITMAP
38
60
70
30
E0
ENDCHAR

STARTCHAR t
ENCODING 116
SWIDTH 407 0
DWIDTH 5 0
BBX 5 6 1 0
BITMAP
30
F8
60
C0
D0
E0
ENDCHAR

STARTCHAR u
ENCODING 117
SWIDTH 685 0
DWIDTH 7 0
BBX 6 5 1 0
BITMAP
EC
6C
D8
F8
DC
ENDCHAR

STARTCHAR v
ENCODING 118
SWIDTH 556 0
DWIDTH 6 0
BBX 5 5 1 0
BITMAP
D0
58
D8
D0
E0
ENDCHAR

STARTCHAR w
ENCODING 119
SWIDTH 833 0
DWIDTH 8 0
BBX 7 5 1 0
BITMAP
D4
56
D6
F4
D8
ENDCHAR

STARTCHAR x
ENCODING 120
SWIDTH 574 0
DWIDTH 6 0
BBX 7 5 0 0
BITMAP
76
38
10
38
CC
ENDCHAR

STARTCHAR y
ENCODING 121
SWIDTH 519 0
DWIDTH 5 0
BBX 6 7 -1 -2
BITMAP
34
34
14
18
18
30
E0
ENDCHAR

STARTCHAR z
ENCODING 122
SWIDTH 519 0
DWIDTH 5 0
BBX 5 5 0 0
BITMAP
78
98
30
68
F0
ENDCHAR

STARTCHAR braceleft
ENCODING 123
SWIDTH 407 0
DWIDTH 4 0
BBX 5 9 1 -2
BITMAP
18
20
60
40
80
40
C0
C0
60
ENDCHAR

STARTCHAR bar
ENCODING 124
SWIDTH 606 0
DWIDTH 6 0
BBX 2 9 2 -2
BITMAP
C0
C0
C0
C0
C0
C0
C0
C0
C0
ENDCHAR

STARTCHAR braceright
ENCODING 125
SWIDTH 407 0
DWIDTH 4 0
BBX 4 9 0 -2
BITMAP
60
30
30
20
10
20
60
60
C0
ENDCHAR

STARTCHAR asciitilde
ENCODING 126
SWIDTH 606 0
DWIDTH 6 0
BBX 5 2 1 2
BITMAP
68
B0
ENDCHAR

STARTCHAR space
ENCODING 160
SWIDTH 287 0
DWIDTH 3 0
BBX 0 0 0 0
BITMAP
ENDCHAR

STARTCHAR exclamdown
ENCODING 161
SWIDTH 333 0
DWIDTH 3 0
BBX 3 7 0 -2
BITMAP
60
60
00
40
C0
C0
C0
ENDCHAR

STARTCHAR cent
ENCODING 162
SWIDTH 574 0
DWIDTH 6 0
BBX 5 9 1 -2
BITMAP
10
10
70
D8
C0
D0
60
80
80
ENDCHAR

STARTCHAR sterling
ENCODING 163
SWIDTH 574 0
DWIDTH 6 0
BBX 6 7 0 0
BITMAP
18
34
30
78
30
74
D8
ENDCHAR

STARTCHAR currency
ENCODING 164
SWIDTH 574 0
DWIDTH 6 0
BBX 6 5 0 1
BITMAP
B4
CC
48
CC
B4
ENDCHAR

STARTCHAR yen
ENCODING 165
SWIDTH 574 0
DWIDTH 6 0
BBX 7 7 0 0
BITMAP
EE
64
68
FC
30
FC
70
ENDCHAR

STARTCHAR brokenbar
ENCODING 166
SWIDTH 606 0
DWIDTH 6 0
BBX 2 9 2 -2
BITMAP
C0
C0
C0
C0
00
C0
C0
C0
C0
ENDCHAR

STARTCHAR section
ENCODING 167
SWIDTH 500 0
DWIDTH 5 0
BBX 6 9 0 -2
BITMAP
18
2C
70
50
48
68
38
D0
60
ENDCHAR

STARTCHAR dieresis
ENCODING 168
SWIDTH 333 0
DWIDTH 3 0
BBX 3 1 1 6
BITMAP
A0
ENDCHAR

STARTCHAR copyright
ENCODING 169
SWIDTH 747 0
DWIDTH 7 0
BBX 7 7 0 0
BITMAP
38
54
AA
A2
AA
54
38
ENDCHAR

STARTCHAR ordfeminine
ENCODING 170
SWIDTH 412 0
DWIDTH 4 0
BBX 4 4 1 3
BITMAP
70
90
A0
70
ENDCHAR

STARTCHAR guillemotleft
ENCODING 171
SWIDTH 481 0
DWIDTH 5 0
BBX 5 4 0 1
BITMAP
28
50
A0
50
ENDCHAR

STARTCHAR logicalnot
ENCODING 172
SWIDTH 606 0
DWIDTH 6 0
BBX 5 3 1 2
BITMAP
F8
08
08
ENDCHAR

STARTCHAR hyphen
ENCODING 173
SWIDTH 333 0
DWIDTH 3 0
BBX 3 1 0 2
BITMAP
E0
ENDCHAR

STARTCHAR registered
ENCODING 174
SWIDTH 747 0
DWIDTH 7 0
BBX 7 7 0 0
BITMAP
38
54
AA
B2
AA
44
38
ENDCHAR

STARTCHAR macron
ENCODING 175
SWIDTH 333 0
DWIDTH 3 0
BBX 4 1 0 6
BITMAP
F0
ENDCHAR

STARTCHAR degree
ENCODING 176
SWIDTH 400 0
DWIDTH 4 0
BBX 4 4 1 3
BITMAP
60
90
90
60
ENDCHAR

STARTCHAR plusminus
ENCODING 177
SWIDTH 606 0
DWIDTH 6 0
BBX 5 7 1 0
BITMAP
20
20
F8
20
20
00
F8
ENDCHAR

STARTCHAR twosuperior
ENCODING 178
SWIDTH 344 0
DWIDTH 3 0
BBX 3 4 1 3
BITMAP
40
20
40
E0
ENDCHAR

STARTCHAR threesuperior
ENCODING 179
SWIDTH 344 0
DWIDTH 3 0
BBX 4 4 1 3
BITMAP
60
30
20
C0
ENDCHAR

STARTCHAR acute
ENCODING 180
SWIDTH 333 0
DWIDTH 3 0
BBX 2 2 1 6
BITMAP
40
80
ENDCHAR

STARTCHAR mu
ENCODING 181
SWIDTH 685 0
DWIDTH 7 0
BBX 7 7 0 -2
BITMAP
76
36
6C
7C
6C
40
80
ENDCHAR

STARTCHAR paragraph
ENCODING 182
SWIDTH 650 0
DWIDTH 6 0
BBX 6 9 1 -2
BITMAP
7C
E8
E8
E8
68
28
28
28
28
ENDCHAR

STARTCHAR periodcentered
ENCODING 183
SWIDTH 287 0
DWIDTH 3 0
BBX 2 2 1 3
BITMAP
C0
C0
ENDCHAR

STARTCHAR cedilla
ENCODING 184
SWIDTH 333 0
DWIDTH 3 0
BBX 3 3 0 -3
BITMAP
40
20
C0
ENDCHAR

STARTCHAR onesuperior
ENCODING 185
SWIDTH 344 0
DWIDTH 3 0
BBX 3 4 0 3
BITMAP
60
20
40
E0
ENDCHAR

STARTCHAR ordmasculine
ENCODING 186
SWIDTH 356 0
DWIDTH 4 0
BBX 3 4 1 3
BITMAP
60
A0
A0
C0
ENDCHAR

STARTCHAR guillemotright
ENCODING 187
SWIDTH 481 0
DWIDTH 5 0
BBX 5 4 0 1
BITMAP
50
28
50
A0
ENDCHAR

STARTCHAR onequarter
ENCODING 188
SWIDTH 861 0
DWIDTH 9 0
BBX 8 7 1 0
BITMAP
64
28
48
F2
26
2F
44
ENDCHAR

STARTCHAR onehalf
ENCODING 189
SWIDTH 861 0
DWIDTH 9 0
BBX 8 7 1 0
BITMAP
64
28
48
F2
21
22
47
ENDCHAR

STARTCHAR threequarters
ENCODING 190
SWIDTH 861 0
DWIDTH 9 0
BBX 8 7 1 0
BITMAP
64
38
28
D2
26
2F
44
ENDCHAR

STARTCHAR questiondown
ENCODING 191
SWIDTH 481 0
DWIDTH 5 0
BBX 5 7 0 -2
BITMAP
18
18
60
30
60
D0
60
ENDCHAR

STARTCHAR Agrave
ENCODING 192
SWIDTH 741 0
DWIDTH 7 0
BBX 8 10 0 0
BITMAP
04
02
00
06
0E
16
16
3E
46
EF
ENDCHAR

STARTCHAR Aacute
ENCODING 193
SWIDTH 741 0
DWIDTH 7 0
BBX 8 10 0 0
BITMAP
01
02
00
06
0E
16
16
3E
46
EF
ENDCHAR

STARTCHAR Acircumflex
ENCODING 194
SWIDTH 741 0
DWIDTH 7 0
BBX 8 10 0 0
BITMAP
02
05
00
06
0E
16
16
3E
46
EF
ENDCHAR

STARTCHAR Atilde
ENCODING 195
SWIDTH 741 0
DWIDTH 7 0
BBX 9 10 0 0
BITMAP
0680
0B00
0000
0600
0E00
1600
1600
3E00
4600
EF00
ENDCHAR

STARTCHAR Adieresis
ENCODING 196
SWIDTH 741 0
DWIDTH 7 0
BBX 8 9 0 0
BITMAP
05
00
06
0E
16
16
3E
46
EF
ENDCHAR

STARTCHAR Aring
ENCODING 197
SWIDTH 741 0
DWIDTH 7 0
BBX 8 10 0 0
BITMAP
02
05
02
06
0E
16
16
3E
46
EF
ENDCHAR

STARTCHAR AE
ENCODING 198
SWIDTH 889 0
DWIDTH 9 0
BBX 10 7 -1 0
BITMAP
1FC0
0E40
1600
1700
3C00
4C80
EF80
ENDCHAR

STARTCHAR Ccedilla
ENCODING 199
SWIDTH 759 0
DWIDTH 7 0
BBX 7 10 0 -3
BITMAP
1A
76
62
C0
C0
C4
78
20
10
60
ENDCHAR

STARTCHAR Egrave
ENCODING 200
SWIDTH 741 0
DWIDTH 7 0
BBX 7 10 0 0
BITMAP
10
08
00
7E
32
30
38
60
64
FC
ENDCHAR

STARTCHAR Eacute
ENCODING 201
SWIDTH 741 0
DWIDTH 7 0
BBX 7 10 0 0
BITMAP
04
08
00
7E
32
30
38
60
64
FC
ENDCHAR

STARTCHAR Ecircumflex
ENCODING 202
SWIDTH 741 0
DWIDTH 7 0
BBX 7 10 0 0
BITMAP
08
14
00
7E
32
30
38
60
64
FC
ENDCHAR

STARTCHAR Edieresis
ENCODING 203
SWIDTH 741 0
DWIDTH 7 0
BBX 7 9 0 0
BITMAP
14
00
7E
32
30
38
60
64
FC
ENDCHAR

STARTCHAR Igrave
ENCODING 204
SWIDTH 444 0
DWIDTH 5 0
BBX 5 10 0 0
BITMAP
20
10
00
78
30
30
30
60
60
F0
ENDCHAR

STARTCHAR Iacute
ENCODING 205
SWIDTH 444 0
DWIDTH 5 0
BBX 5 10 0 0
BITMAP
08
10
00
78
30
30
30
60
60
F0
ENDCHAR

STARTCHAR Icircumflex
ENCODING 206
SWIDTH 444 0
DWIDTH 5 0
BBX 5 10 0 0
BITMAP
10
28
00
78
30
30
30
60
60
F0
ENDCHAR

STARTCHAR Idieresis
ENCODING 207
SWIDTH 444 0
DWIDTH 5 0
BBX 5 9 0 0
BITMAP
28
00
78
30
30
30
60
60
F0
ENDCHAR

STARTCHAR Gbreve
ENCODING 208
SWIDTH 815 0
DWIDTH 7 0
BBX 7 10 0 0
BITMAP
24
18
00
1A
76
60
DE
CC
DC
6C
ENDCHAR

STARTCHAR Ntilde
ENCODING 209
SWIDTH 852 0
DWIDTH 8 0
BBX 8 10 0 0
BITMAP
0D
16
00
77
32
3A
5A
5C
4C
EC
ENDCHAR

STARTCHAR Ograve
ENCODING 210
SWIDTH 833 0
DWIDTH 8 0
BBX 8 10 0 0
BITMAP
08
04
00
1E
73
63
C3
C6
CE
78
ENDCHAR

STARTCHAR Oacute
ENCODING 211
SWIDTH 833 0
DWIDTH 8 0
BBX 8 10 0 0
BITMAP
02
04
00
1E
73
63
C3
C6
CE
78
ENDCHAR

STARTCHAR Ocircumflex
ENCODING 212
SWIDTH 833 0
DWIDTH 8 0
BBX 8 10 0 0
BITMAP
04
0A
00
1E
73
63
C3
C6
CE
78
ENDCHAR

STARTCHAR Otilde
ENCODING 213
SWIDTH 833 0
DWIDTH 8 0
BBX 8 10 0 0
BITMAP
0D
16
00
1E
73
63
C3
C6
CE
78
ENDCHAR

STARTCHAR Odieresis
ENCODING 214
SWIDTH 833 0
DWIDTH 8 0
BBX 8 9 0 0
BITMAP
0A
00
1E
73
63
C3
C6
CE
78
ENDCHAR

STARTCHAR multiply
ENCODING 215
SWIDTH 650 0
DWIDTH 6 0
BBX 6 6 0 0
BITMAP
84
48
30
30
48
84
ENDCHAR

STARTCHAR Oslash
ENCODING 216
SWIDTH 833 0
DWIDTH 8 0
BBX 8 7 0 0
BITMAP
1D
77
6B
CB
D6
EE
B8
ENDCHAR

STARTCHAR Ugrave
ENCODING 217
SWIDTH 833 0
DWIDTH 8 0
BBX 8 10 1 0
BITMAP
10
08
00
F7
62
62
C4
C4
C8
70
ENDCHAR

STARTCHAR Uacute
ENCODING 218
SWIDTH 833 0
DWIDTH 8 0
BBX 8 10 1 0
BITMAP
04
08
00
F7
62
62
C4
C4
C8
70
ENDCHAR

STARTCHAR Ucircumflex
ENCODING 219
SWIDTH 833 0
DWIDTH 8 0
BBX 8 10 1 0
BITMAP
08
14
00
F7
62
62
C4
C4
C8
70
ENDCHAR

STARTCHAR Udieresis
ENCODING 220
SWIDTH 833 0
DWIDTH 8 0
BBX 8 9 1 0
BITMAP
14
00
F7
62
62
C4
C4
C8
70
ENDCHAR

STARTCHAR Idotaccent
ENCODING 221
SWIDTH 444 0
DWIDTH 5 0
BBX 5 9 0 0
BITMAP
10
00
78
30
30
30
60
60
F0
ENDCHAR

STARTCHAR Scedilla
ENCODING 222
SWIDTH 685 0
DWIDTH 7 0
BBX 7 10 0 -3
BITMAP
3A
66
72
38
9C
CC
B8
10
08
30
ENDCHAR

STARTCHAR germandbls
ENCODING 223
SWIDTH 574 0
DWIDTH 6 0
BBX 7 9 -1 -2
BITMAP
1C
36
36
6C
6C
7C
68
40
C0
ENDCHAR

STARTCHAR agrave
ENCODING 224
SWIDTH 667 0
DWIDTH 7 0
BBX 6 8 1 0
BITMAP
20
10
00
34
5C
D8
D8
6C
ENDCHAR

STARTCHAR aacute
ENCODING 225
SWIDTH 667 0
DWIDTH 7 0
BBX 6 8 1 0
BITMAP
08
10
00
34
5C
D8
D8
6C
ENDCHAR

STARTCHAR acircumflex
ENCODING 226
SWIDTH 667 0
DWIDTH 7 0
BBX 6 8 1 0
BITMAP
10
28
00
34
5C
D8
D8
6C
ENDCHAR

STARTCHAR atilde
ENCODING 227
SWIDTH 667 0
DWIDTH 7 0
BBX 7 8 1 0
BITMAP
1A
2C
00
34
5C
D8
D8
6C
ENDCHAR

STARTCHAR adieresis
ENCODING 228
SWIDTH 667 0
DWIDTH 7 0
BBX 6 7 1 0
BITMAP
28
00
34
5C
D8
D8
6C
ENDCHAR

STARTCHAR aring
ENCODING 229
SWIDTH 667 0
DWIDTH 7 0
BBX 6 9 1 0
BITMAP
10
28
10
00
34
5C
D8
D8
6C
ENDCHAR

STARTCHAR ae
ENCODING 230
SWIDTH 815 0
DWIDTH 8 0
BBX 7 5 1 0
BITMAP
3E
56
DC
D0
6C
ENDCHAR

STARTCHAR ccedilla
ENCODING 231
SWIDTH 537 0
DWIDTH 5 0
BBX 5 8 1 -3
BITMAP
38
68
C0
D0
E0
40
20
C0
ENDCHAR

STARTCHAR egrave
ENCODING 232
SWIDTH 519 0
DWIDTH 5 0
BBX 5 8 0 0
BITMAP
20
10
00
38
58
F0
C0
70
ENDCHAR

STARTCHAR eacute
ENCODING 233
SWIDTH 519 0
DWIDTH 5 0
BBX 5 8 0 0
BITMAP
08
10
00
38
58
F0
C0
70
ENDCHAR

STARTCHAR ecircumflex
ENCODING 234
SWIDTH 519 0
DWIDTH 5 0
BBX 6 8 0 0
BITMAP
08
14
00
38
58
F0
C0
70
ENDCHAR

STARTCHAR edieresis
ENCODING 235
SWIDTH 519 0
DWIDTH 5 0
BBX 5 7 0 0
BITMAP
28
00
38
58
F0
C0
70
ENDCHAR

STARTCHAR igrave
ENCODING 236
SWIDTH 389 0
DWIDTH 4 0
BBX 3 8 1 0
BITMAP
80
40
00
E0
60
60
C0
E0
ENDCHAR

STARTCHAR iacute
ENCODING 237
SWIDTH 389 0
DWIDTH 4 0
BBX 3 8 1 0
BITMAP
20
40
00
E0
60
60
C0
E0
ENDCHAR

STARTCHAR icircumflex
ENCODING 238
SWIDTH 389 0
DWIDTH 4 0
BBX 4 8 1 0
BITMAP
20
50
00
E0
60
60
C0
E0
ENDCHAR

STARTCHAR idieresis
ENCODING 239
SWIDTH 389 0
DWIDTH 4 0
BBX 4 7 1 0
BITMAP
50
00
E0
60
60
C0
E0
ENDCHAR

STARTCHAR gbreve
ENCODING 240
SWIDTH 611 0
DWIDTH 5 0
BBX 6 10 0 -2
BITMAP
24
18
00
34
68
68
30
78
D8
F0
ENDCHAR

STARTCHAR ntilde
ENCODING 241
SWIDTH 685 0
DWIDTH 7 0
BBX 6 8 1 0
BITMAP
34
58
00
EC
7C
6C
D8
DC
ENDCHAR

STARTCHAR ograve
ENCODING 242
SWIDTH 574 0
DWIDTH 6 0
BBX 5 8 1 0
BITMAP
20
10
00
38
58
D8
D0
E0
ENDCHAR

STARTCHAR oacute
ENCODING 243
SWIDTH 574 0
DWIDTH 6 0
BBX 5 8 1 0
BITMAP
08
10
00
38
58
D8
D0
E0
ENDCHAR

STARTCHAR ocircumflex
ENCODING 244
SWIDTH 574 0
DWIDTH 6 0
BBX 5 8 1 0
BITMAP
10
28
00
38
58
D8
D0
E0
ENDCHAR

STARTCHAR otilde
ENCODING 245
SWIDTH 574 0
DWIDTH 6 0
BBX 6 8 1 0
BITMAP
34
58
00
38
58
D8
D0
E0
ENDCHAR

STARTCHAR odieresis
ENCODING 246
SWIDTH 574 0
DWIDTH 6 0
BBX 5 7 1 0
BITMAP
28
00
38
58
D8
D0
E0
ENDCHAR

STARTCHAR divide
ENCODING 247
SWIDTH 650 0
DWIDTH 6 0
BBX 5 5 1 1
BITMAP
20
00
F8
00
20
ENDCHAR

STARTCHAR oslash
ENCODING 248
SWIDTH 574 0
DWIDTH 6 0
BBX 5 5 1 0
BITMAP
38
58
F8
D0
E0
ENDCHAR

STARTCHAR ugrave
ENCODING 249
SWIDTH 685 0
DWIDTH 7 0
BBX 6 8 1 0
BITMAP
20
10
00
EC
6C
D8
F8
DC
ENDCHAR

STARTCHAR uacute
ENCODING 250
SWIDTH 685 0
DWIDTH 7 0
BBX 6 8 1 0
BITMAP
08
10
00
EC
6C
D8
F8
DC
ENDCHAR

STARTCHAR ucircumflex
ENCODING 251
SWIDTH 685 0
DWIDTH 7 0
BBX 6 8 1 0
BITMAP
10
28
00
EC
6C
D8
F8
DC
ENDCHAR

STARTCHAR udieresis
ENCODING 252
SWIDTH 685 0
DWIDTH 7 0
BBX 6 7 1 0
BITMAP
28
00
EC
6C
D8
F8
DC
ENDCHAR

STARTCHAR dotlessi
ENCODING 253
SWIDTH 389 0
DWIDTH 4 0
BBX 3 5 1 0
BITMAP
E0
60
60
C0
E0
ENDCHAR

STARTCHAR scedilla
ENCODING 254
SWIDTH 481 0
DWIDTH 4 0
BBX 5 8 0 -3
BITMAP
38
60
70
30
E0
40
20
C0
ENDCHAR

STARTCHAR ydieresis
ENCODING 255
SWIDTH 519 0
DWIDTH 5 0
BBX 6 10 -1 -2
BITMAP
04
08
00
34
34
14
18
18
30
E0
ENDCHAR
ENDFONT
